<svg xmlns="http://www.w3.org/2000/svg" viewBox="0 0 1345.77 249.33"><defs><style>.a{isolation:isolate;}.b{fill:#fff;}</style></defs><g class="a"><g class="a"><path class="b" d="M10.74,84.25a30.06,30.06,0,0,1-9-3.65l4.58-9.86A28.71,28.71,0,0,0,14,74a31.76,31.76,0,0,0,8.8,1.28q8.72,0,8.71-4.31,0-2-2.37-2.91a35.77,35.77,0,0,0-7.31-1.49,69.7,69.7,0,0,1-9.59-2,14.85,14.85,0,0,1-6.55-4Q2.91,57.63,2.9,52.26a13,13,0,0,1,2.6-8,16.65,16.65,0,0,1,7.57-5.41A32.32,32.32,0,0,1,24.82,37a46.24,46.24,0,0,1,10,1.1,28.07,28.07,0,0,1,8.23,3l-4.57,9.77a27.32,27.32,0,0,0-13.64-3.52,13.86,13.86,0,0,0-6.6,1.23A3.62,3.62,0,0,0,16,51.74a3.15,3.15,0,0,0,2.37,3.08A43.07,43.07,0,0,0,26,56.49a78.41,78.41,0,0,1,9.5,2.07,14.2,14.2,0,0,1,6.43,4q2.73,2.91,2.73,8.1A12.51,12.51,0,0,1,42,78.49a16.84,16.84,0,0,1-7.7,5.32,34.39,34.39,0,0,1-12,1.89A45.81,45.81,0,0,1,10.74,84.25Z" transform="translate(-1.76 -15.74)"/><path class="b" d="M83.16,42.19q5.9,5.24,5.9,15.79V85H76.21V79.1q-3.87,6.6-14.44,6.6a22.46,22.46,0,0,1-9.46-1.84,14.22,14.22,0,0,1-6.11-5.11,13.25,13.25,0,0,1-2.11-7.39,12.31,12.31,0,0,1,5-10.38q5-3.79,15.36-3.79H75.33a8.76,8.76,0,0,0-2.73-6.91q-2.73-2.41-8.18-2.42A23.93,23.93,0,0,0,57,49.05a19.89,19.89,0,0,0-6.21,3.21l-4.92-9.59a29.7,29.7,0,0,1,9.28-4.22A41.5,41.5,0,0,1,66.26,37Q77.27,37,83.16,42.19ZM71.46,74.84A9,9,0,0,0,75.33,70V65.2H65.91q-8.44,0-8.45,5.54a4.93,4.93,0,0,0,2.07,4.18,9.3,9.3,0,0,0,5.68,1.54A12,12,0,0,0,71.46,74.84Z" transform="translate(-1.76 -15.74)"/><path class="b" d="M143.26,37.66V85h-13V79.37a18.34,18.34,0,0,1-6.51,4.71,20.61,20.61,0,0,1-8.19,1.62q-9.33,0-14.78-5.36T95.3,64.41V37.66H109V62.38q0,11.45,9.59,11.44a10.3,10.3,0,0,0,7.92-3.21q3-3.21,3-9.55V37.66ZM123.11,18.91h14.78L122,31.58H111.23Z" transform="translate(-1.76 -15.74)"/><path class="b" d="M198.35,19.7V85H185.24V79.54q-5.12,6.17-14.79,6.16a24.56,24.56,0,0,1-12.1-3,21.5,21.5,0,0,1-8.49-8.53,26.07,26.07,0,0,1-3.08-12.85,26.07,26.07,0,0,1,3.08-12.85,21.53,21.53,0,0,1,8.49-8.54,24.66,24.66,0,0,1,12.1-3q9.08,0,14.17,5.72v-23Zm-16.9,51.18q3.44-3.57,3.44-9.55t-3.44-9.55a11.43,11.43,0,0,0-8.62-3.56,11.56,11.56,0,0,0-8.71,3.56q-3.44,3.57-3.43,9.55t3.43,9.55a11.59,11.59,0,0,0,8.71,3.56A11.47,11.47,0,0,0,181.45,70.88Z" transform="translate(-1.76 -15.74)"/><path class="b" d="M251.24,65.2H215.42a11.16,11.16,0,0,0,4.58,7,15.13,15.13,0,0,0,9,2.55,18,18,0,0,0,6.56-1.1,15.89,15.89,0,0,0,5.32-3.47l7.31,7.92q-6.69,7.65-19.54,7.65a31,31,0,0,1-14.17-3.12,22.89,22.89,0,0,1-9.5-8.67,23.86,23.86,0,0,1-3.35-12.58,24.17,24.17,0,0,1,3.3-12.54A23.1,23.1,0,0,1,214,40.08a28,28,0,0,1,25.47-.14,21.88,21.88,0,0,1,8.85,8.58,25.63,25.63,0,0,1,3.21,13C251.5,61.68,251.41,62.91,251.24,65.2ZM219.12,50a11.2,11.2,0,0,0-3.88,7.21h23.32A11.36,11.36,0,0,0,234.69,50,11.55,11.55,0,0,0,227,47.34,11.81,11.81,0,0,0,219.12,50Z" transform="translate(-1.76 -15.74)"/><path class="b" d="M288.81,38.71H301V49.27h-11.8V85H275.44V49.27h-7.31V38.71h7.31V36.6q0-8.1,4.79-12.85T293.74,19a25.21,25.21,0,0,1,5.85.66,14.21,14.21,0,0,1,4.62,1.89l-3.61,10a9.34,9.34,0,0,0-5.54-1.68q-6.26,0-6.25,6.87Zm26.75-9.85a7.16,7.16,0,0,1-2.37-5.46,7.16,7.16,0,0,1,2.37-5.46,8.75,8.75,0,0,1,6.16-2.2,8.9,8.9,0,0,1,6.16,2.12,6.73,6.73,0,0,1,2.38,5.28,7.44,7.44,0,0,1-2.38,5.67,8.57,8.57,0,0,1-6.16,2.25A8.75,8.75,0,0,1,315.56,28.86Zm-.7,8.8h13.73V85H314.86Z" transform="translate(-1.76 -15.74)"/><path class="b" d="M378.44,42.23q5.42,5.28,5.41,15.67V85H370.12V60q0-5.64-2.46-8.41c-1.64-1.84-4-2.77-7.13-2.77A10.92,10.92,0,0,0,352.26,52q-3.09,3.23-3.08,9.55V85H335.45V37.66h13.11V43.2a18.33,18.33,0,0,1,6.78-4.62A23.72,23.72,0,0,1,364.23,37Q373,37,378.44,42.23Z" transform="translate(-1.76 -15.74)"/><path class="b" d="M426.35,42.19q5.89,5.24,5.9,15.79V85H419.4V79.1q-3.87,6.6-14.43,6.6a22.43,22.43,0,0,1-9.46-1.84,14.2,14.2,0,0,1-6.12-5.11,13.33,13.33,0,0,1-2.11-7.39,12.34,12.34,0,0,1,5-10.38q5-3.79,15.36-3.79h10.91a8.76,8.76,0,0,0-2.73-6.91c-1.82-1.61-4.54-2.42-8.18-2.42a24,24,0,0,0-7.44,1.19,19.84,19.84,0,0,0-6.2,3.21L389,42.67a29.76,29.76,0,0,1,9.29-4.22A41.39,41.39,0,0,1,409.46,37Q420.46,37,426.35,42.19Zm-11.7,32.65a8.92,8.92,0,0,0,3.87-4.8V65.2h-9.41q-8.46,0-8.45,5.54a4.93,4.93,0,0,0,2.07,4.18,9.27,9.27,0,0,0,5.67,1.54A12,12,0,0,0,414.65,74.84Z" transform="translate(-1.76 -15.74)"/><path class="b" d="M481.75,42.23q5.42,5.28,5.41,15.67V85H473.43V60q0-5.64-2.46-8.41c-1.64-1.84-4-2.77-7.13-2.77A10.92,10.92,0,0,0,455.57,52q-3.07,3.23-3.08,9.55V85H438.76V37.66h13.11V43.2a18.33,18.33,0,0,1,6.78-4.62A23.72,23.72,0,0,1,467.54,37Q476.33,37,481.75,42.23Z" transform="translate(-1.76 -15.74)"/><path class="b" d="M503.48,82.58a23.24,23.24,0,0,1-12.8-21.25,23.21,23.21,0,0,1,12.8-21.25A29,29,0,0,1,517.08,37a26.28,26.28,0,0,1,13.07,3.13A18.54,18.54,0,0,1,538.29,49l-10.65,5.72q-3.69-6.51-10.65-6.51a12,12,0,0,0-8.89,3.52q-3.51,3.51-3.52,9.59t3.52,9.59A12,12,0,0,0,517,74.44c4.7,0,8.24-2.17,10.65-6.51l10.65,5.81a19,19,0,0,1-8.14,8.8,26.08,26.08,0,0,1-13.07,3.16A29.15,29.15,0,0,1,503.48,82.58Z" transform="translate(-1.76 -15.74)"/><path class="b" d="M585.81,65.2H550a11.16,11.16,0,0,0,4.58,7,15.15,15.15,0,0,0,9,2.55,18,18,0,0,0,6.56-1.1,15.8,15.8,0,0,0,5.32-3.47l7.31,7.92Q576,85.7,563.19,85.7A31,31,0,0,1,549,82.58a22.89,22.89,0,0,1-9.5-8.67,23.85,23.85,0,0,1-3.34-12.58,24.17,24.17,0,0,1,3.3-12.54,23.07,23.07,0,0,1,9.06-8.71A28.05,28.05,0,0,1,574,39.94a21.92,21.92,0,0,1,8.84,8.58,25.63,25.63,0,0,1,3.21,13C586.07,61.68,586,62.91,585.81,65.2ZM553.69,50a11.24,11.24,0,0,0-3.87,7.21h23.32A11.33,11.33,0,0,0,569.26,50a11.55,11.55,0,0,0-7.74-2.68A11.81,11.81,0,0,0,553.69,50Z" transform="translate(-1.76 -15.74)"/><path class="b" d="M590,28.86a7.16,7.16,0,0,1-2.37-5.46A7.16,7.16,0,0,1,590,17.94a8.75,8.75,0,0,1,6.16-2.2,8.92,8.92,0,0,1,6.16,2.12,6.73,6.73,0,0,1,2.38,5.28,7.44,7.44,0,0,1-2.38,5.67,8.59,8.59,0,0,1-6.16,2.25A8.75,8.75,0,0,1,590,28.86Zm-.7,8.8h13.73V85H589.33Z" transform="translate(-1.76 -15.74)"/><path class="b" d="M629.68,38.71A24.66,24.66,0,0,1,639.31,37V49.62c-1.52-.11-2.55-.17-3.08-.17q-5.9,0-9.24,3.3t-3.34,9.9V85H609.92V37.66H623V43.9A15.35,15.35,0,0,1,629.68,38.71Z" transform="translate(-1.76 -15.74)"/><path class="b" d="M677.33,42.19q5.89,5.24,5.89,15.79V85H670.38V79.1q-3.89,6.6-14.44,6.6a22.46,22.46,0,0,1-9.46-1.84,14.17,14.17,0,0,1-6.11-5.11,13.25,13.25,0,0,1-2.11-7.39,12.31,12.31,0,0,1,5-10.38q5-3.79,15.35-3.79H669.5a8.76,8.76,0,0,0-2.73-6.91q-2.73-2.41-8.19-2.42a23.91,23.91,0,0,0-7.43,1.19,19.89,19.89,0,0,0-6.21,3.21L640,42.67a29.7,29.7,0,0,1,9.28-4.22A41.5,41.5,0,0,1,660.43,37Q671.44,37,677.33,42.19ZM665.62,74.84A9,9,0,0,0,669.5,70V65.2h-9.42q-8.45,0-8.45,5.54a4.93,4.93,0,0,0,2.07,4.18,9.3,9.3,0,0,0,5.68,1.54A12,12,0,0,0,665.62,74.84Z" transform="translate(-1.76 -15.74)"/><path class="b" d="M707.86,37.92h41.89V48.66H707.86Zm0,21.82h41.89V70.48H707.86Z" transform="translate(-1.76 -15.74)"/><path class="b" d="M814.56,40a21.76,21.76,0,0,1,8.49,8.53,25.73,25.73,0,0,1,3.08,12.81,25.66,25.66,0,0,1-3.08,12.8,21.79,21.79,0,0,1-8.49,8.54,24.16,24.16,0,0,1-12,3q-9.06,0-14.26-5.72v22.09H774.57V37.66h13.11v5.45Q792.78,37,802.55,37A24.07,24.07,0,0,1,814.56,40Zm-5.72,30.89q3.39-3.57,3.39-9.55t-3.39-9.55a12.33,12.33,0,0,0-17.33,0q-3.39,3.57-3.39,9.55t3.39,9.55a12.33,12.33,0,0,0,17.33,0Z" transform="translate(-1.76 -15.74)"/><path class="b" d="M849.14,38.71A24.74,24.74,0,0,1,858.78,37V49.62c-1.53-.11-2.55-.17-3.08-.17q-5.9,0-9.24,3.3t-3.34,9.9V85H829.39V37.66H842.5V43.9A15.38,15.38,0,0,1,849.14,38.71Z" transform="translate(-1.76 -15.74)"/><path class="b" d="M869.74,82.58a23.2,23.2,0,0,1-9.29-8.67,23.85,23.85,0,0,1-3.34-12.58,23.89,23.89,0,0,1,3.34-12.59,23.25,23.25,0,0,1,9.29-8.66,30.23,30.23,0,0,1,26.79,0,23.31,23.31,0,0,1,9.24,8.66,23.9,23.9,0,0,1,3.35,12.59,23.86,23.86,0,0,1-3.35,12.58,23.26,23.26,0,0,1-9.24,8.67,30.31,30.31,0,0,1-26.79,0Zm22.09-11.7q3.38-3.57,3.38-9.55t-3.38-9.55a11.42,11.42,0,0,0-8.67-3.56,11.54,11.54,0,0,0-8.71,3.56Q871,55.35,871,61.33t3.44,9.55a11.58,11.58,0,0,0,8.71,3.56A11.46,11.46,0,0,0,891.83,70.88Z" transform="translate(-1.76 -15.74)"/><path class="b" d="M960.6,19.7V85H947.49V79.54q-5.12,6.17-14.79,6.16a24.53,24.53,0,0,1-12.1-3,21.38,21.38,0,0,1-8.49-8.53A26,26,0,0,1,909,61.33a26,26,0,0,1,3.08-12.85,21.4,21.4,0,0,1,8.49-8.54,24.64,24.64,0,0,1,12.1-3q9.06,0,14.17,5.72v-23ZM943.7,70.88q3.43-3.57,3.43-9.55t-3.43-9.55a12.33,12.33,0,0,0-17.33,0q-3.43,3.57-3.44,9.55t3.44,9.55a12.33,12.33,0,0,0,17.33,0Z" transform="translate(-1.76 -15.74)"/><path class="b" d="M1015.07,37.66V85h-13V79.37a18.34,18.34,0,0,1-6.51,4.71,20.56,20.56,0,0,1-8.18,1.62q-9.33,0-14.79-5.36t-5.45-15.93V37.66h13.73V62.38q0,11.45,9.59,11.44a10.33,10.33,0,0,0,7.92-3.21q3-3.21,3-9.55V37.66Z" transform="translate(-1.76 -15.74)"/><path class="b" d="M1052.47,82.71a14.13,14.13,0,0,1-5,2.25,25.64,25.64,0,0,1-6.21.74q-8.44,0-13.07-4.31t-4.62-12.67V49.27h-7.3V38.71h7.3V27.18h13.73V38.71h11.79V49.27h-11.79V68.54a6.43,6.43,0,0,0,1.54,4.62,5.7,5.7,0,0,0,4.36,1.63,8.76,8.76,0,0,0,5.54-1.76Z" transform="translate(-1.76 -15.74)"/><path class="b" d="M1055,28.86a7.17,7.17,0,0,1-2.38-5.46,7.17,7.17,0,0,1,2.38-5.46,8.73,8.73,0,0,1,6.16-2.2,8.92,8.92,0,0,1,6.16,2.12,6.77,6.77,0,0,1,2.38,5.28,7.48,7.48,0,0,1-2.38,5.67,8.59,8.59,0,0,1-6.16,2.25A8.73,8.73,0,0,1,1055,28.86Zm-.7,8.8H1068V85h-13.72Z" transform="translate(-1.76 -15.74)"/><path class="b" d="M1121.9,37.66l-20,47.34h-14.17l-19.88-47.34H1082l13.11,32.2,13.55-32.2Z" transform="translate(-1.76 -15.74)"/><path class="b" d="M1122.34,28.86A7.13,7.13,0,0,1,1120,23.4a7.13,7.13,0,0,1,2.38-5.46,8.73,8.73,0,0,1,6.16-2.2,8.92,8.92,0,0,1,6.16,2.12,6.77,6.77,0,0,1,2.38,5.28,7.48,7.48,0,0,1-2.38,5.67,8.59,8.59,0,0,1-6.16,2.25A8.73,8.73,0,0,1,1122.34,28.86Zm-.71,8.8h13.73V85h-13.73Z" transform="translate(-1.76 -15.74)"/><path class="b" d="M1190.45,19.7V85h-13.11V79.54q-5.1,6.17-14.79,6.16a24.49,24.49,0,0,1-12.09-3,21.47,21.47,0,0,1-8.5-8.53,26.07,26.07,0,0,1-3.08-12.85A26.07,26.07,0,0,1,1142,48.48a21.49,21.49,0,0,1,8.5-8.54,24.6,24.6,0,0,1,12.09-3q9.08,0,14.17,5.72v-23Zm-16.9,51.18q3.43-3.57,3.44-9.55t-3.44-9.55a11.43,11.43,0,0,0-8.62-3.56,11.56,11.56,0,0,0-8.71,3.56q-3.43,3.57-3.43,9.55t3.43,9.55a11.59,11.59,0,0,0,8.71,3.56A11.47,11.47,0,0,0,1173.55,70.88Z" transform="translate(-1.76 -15.74)"/><path class="b" d="M1233.22,42.19q5.9,5.24,5.89,15.79V85h-12.85V79.1q-3.87,6.6-14.43,6.6a22.43,22.43,0,0,1-9.46-1.84,14.17,14.17,0,0,1-6.11-5.11,13.26,13.26,0,0,1-2.12-7.39,12.32,12.32,0,0,1,5-10.38q5-3.79,15.35-3.79h10.91a8.79,8.79,0,0,0-2.72-6.91q-2.73-2.41-8.19-2.42a23.91,23.91,0,0,0-7.43,1.19,19.78,19.78,0,0,0-6.21,3.21l-4.93-9.59a29.87,29.87,0,0,1,9.29-4.22,41.5,41.5,0,0,1,11.13-1.5Q1227.32,37,1233.22,42.19Zm-11.71,32.65a8.92,8.92,0,0,0,3.87-4.8V65.2H1216q-8.45,0-8.45,5.54a4.93,4.93,0,0,0,2.07,4.18,9.29,9.29,0,0,0,5.67,1.54A12,12,0,0,0,1221.51,74.84Z" transform="translate(-1.76 -15.74)"/><path class="b" d="M1294.38,19.7V85h-13.12V79.54q-5.1,6.17-14.78,6.16a24.53,24.53,0,0,1-12.1-3,21.38,21.38,0,0,1-8.49-8.53,26,26,0,0,1-3.08-12.85,26,26,0,0,1,3.08-12.85,21.4,21.4,0,0,1,8.49-8.54,24.64,24.64,0,0,1,12.1-3q9.06,0,14.17,5.72v-23Zm-16.9,51.18q3.43-3.57,3.43-9.55t-3.43-9.55a12.34,12.34,0,0,0-17.34,0,13.23,13.23,0,0,0-3.43,9.55,13.23,13.23,0,0,0,3.43,9.55,12.34,12.34,0,0,0,17.34,0Z" transform="translate(-1.76 -15.74)"/><path class="b" d="M1347.26,65.2h-35.81a11.15,11.15,0,0,0,4.57,7,15.19,15.19,0,0,0,9,2.55,18,18,0,0,0,6.55-1.1,15.83,15.83,0,0,0,5.33-3.47l7.3,7.92q-6.69,7.65-19.53,7.65a30.92,30.92,0,0,1-14.17-3.12,22.86,22.86,0,0,1-9.51-8.67,23.85,23.85,0,0,1-3.34-12.58,24.17,24.17,0,0,1,3.3-12.54,23.07,23.07,0,0,1,9.06-8.71,28.05,28.05,0,0,1,25.48-.14,21.92,21.92,0,0,1,8.84,8.58,25.53,25.53,0,0,1,3.22,13C1347.53,61.68,1347.44,62.91,1347.26,65.2ZM1315.14,50a11.24,11.24,0,0,0-3.87,7.21h23.32a11.36,11.36,0,0,0-3.87-7.17,11.58,11.58,0,0,0-7.75-2.68A11.81,11.81,0,0,0,1315.14,50Z" transform="translate(-1.76 -15.74)"/></g></g><g class="a"><g class="a"><path class="b" d="M10.74,247.25a30.06,30.06,0,0,1-9-3.65l4.58-9.86A28.71,28.71,0,0,0,14,237a31.76,31.76,0,0,0,8.8,1.28q8.72,0,8.71-4.31,0-2-2.37-2.91a35.77,35.77,0,0,0-7.31-1.49,69.7,69.7,0,0,1-9.59-2,14.85,14.85,0,0,1-6.55-4q-2.77-2.91-2.78-8.28a13,13,0,0,1,2.6-8,16.65,16.65,0,0,1,7.57-5.41A32.32,32.32,0,0,1,24.82,200a46.24,46.24,0,0,1,10,1.1,28.07,28.07,0,0,1,8.23,3l-4.57,9.77a27.32,27.32,0,0,0-13.64-3.52,13.86,13.86,0,0,0-6.6,1.23,3.62,3.62,0,0,0-2.2,3.17,3.15,3.15,0,0,0,2.37,3.08A43.07,43.07,0,0,0,26,219.49a78.41,78.41,0,0,1,9.5,2.07,14.2,14.2,0,0,1,6.43,4q2.73,2.91,2.73,8.1A12.51,12.51,0,0,1,42,241.49a16.84,16.84,0,0,1-7.7,5.32,34.39,34.39,0,0,1-12,1.89A45.81,45.81,0,0,1,10.74,247.25Z" transform="translate(-1.76 -15.74)"/><path class="b" d="M83.16,205.19q5.9,5.24,5.9,15.79v27H76.21v-5.9q-3.87,6.6-14.44,6.6a22.46,22.46,0,0,1-9.46-1.84,14.22,14.22,0,0,1-6.11-5.11,13.25,13.25,0,0,1-2.11-7.39,12.31,12.31,0,0,1,5-10.38q5-3.79,15.36-3.79H75.33a8.76,8.76,0,0,0-2.73-6.91q-2.73-2.42-8.18-2.42A23.93,23.93,0,0,0,57,212.05a19.89,19.89,0,0,0-6.21,3.21l-4.92-9.59a29.7,29.7,0,0,1,9.28-4.22A41.5,41.5,0,0,1,66.26,200Q77.27,200,83.16,205.19Zm-11.7,32.65a9,9,0,0,0,3.87-4.8V228.2H65.91q-8.44,0-8.45,5.54a4.93,4.93,0,0,0,2.07,4.18,9.3,9.3,0,0,0,5.68,1.54A12,12,0,0,0,71.46,237.84Z" transform="translate(-1.76 -15.74)"/><path class="b" d="M143.26,200.66V248h-13v-5.63a18.34,18.34,0,0,1-6.51,4.71,20.61,20.61,0,0,1-8.19,1.62q-9.33,0-14.78-5.36T95.3,227.41V200.66H109v24.72q0,11.44,9.59,11.44a10.3,10.3,0,0,0,7.92-3.21q3-3.21,3-9.55v-23.4Zm-20.15-18.75h14.78L122,194.58H111.23Z" transform="translate(-1.76 -15.74)"/><path class="b" d="M198.35,182.7V248H185.24v-5.46q-5.12,6.17-14.79,6.16a24.56,24.56,0,0,1-12.1-3,21.5,21.5,0,0,1-8.49-8.53,28.35,28.35,0,0,1,0-25.7,21.53,21.53,0,0,1,8.49-8.54,24.66,24.66,0,0,1,12.1-3q9.08,0,14.17,5.72v-23Zm-16.9,51.18q3.44-3.57,3.44-9.55t-3.44-9.55a11.43,11.43,0,0,0-8.62-3.56,11.56,11.56,0,0,0-8.71,3.56q-3.44,3.57-3.43,9.55t3.43,9.55a11.59,11.59,0,0,0,8.71,3.56A11.47,11.47,0,0,0,181.45,233.88Z" transform="translate(-1.76 -15.74)"/><path class="b" d="M251.24,228.2H215.42a11.16,11.16,0,0,0,4.58,7,15.13,15.13,0,0,0,9,2.55,18,18,0,0,0,6.56-1.1,15.89,15.89,0,0,0,5.32-3.47l7.31,7.92q-6.69,7.65-19.54,7.65a31,31,0,0,1-14.17-3.12,22.89,22.89,0,0,1-9.5-8.67,23.86,23.86,0,0,1-3.35-12.58,24.17,24.17,0,0,1,3.3-12.54,23.1,23.1,0,0,1,9.07-8.71,28,28,0,0,1,25.47-.14,21.88,21.88,0,0,1,8.85,8.58,25.63,25.63,0,0,1,3.21,13C251.5,224.68,251.41,225.91,251.24,228.2ZM219.12,213a11.2,11.2,0,0,0-3.88,7.21h23.32a11.36,11.36,0,0,0-3.87-7.17,11.55,11.55,0,0,0-7.74-2.68A11.81,11.81,0,0,0,219.12,213Z" transform="translate(-1.76 -15.74)"/><path class="b" d="M288.81,201.71H301v10.56h-11.8V248H275.44V212.27h-7.31V201.71h7.31V199.6q0-8.1,4.79-12.85T293.74,182a25.21,25.21,0,0,1,5.85.66,14.21,14.21,0,0,1,4.62,1.89l-3.61,9.95a9.34,9.34,0,0,0-5.54-1.68q-6.26,0-6.25,6.87Zm26.75-9.85a7.47,7.47,0,0,1,0-10.92,8.75,8.75,0,0,1,6.16-2.2,8.9,8.9,0,0,1,6.16,2.12,6.73,6.73,0,0,1,2.38,5.28,7.44,7.44,0,0,1-2.38,5.67,8.57,8.57,0,0,1-6.16,2.25A8.75,8.75,0,0,1,315.56,191.86Zm-.7,8.8h13.73V248H314.86Z" transform="translate(-1.76 -15.74)"/><path class="b" d="M378.44,205.23q5.42,5.28,5.41,15.67V248H370.12V223q0-5.64-2.46-8.41c-1.64-1.84-4-2.77-7.13-2.77a10.92,10.92,0,0,0-8.27,3.21q-3.09,3.22-3.08,9.55V248H335.45V200.66h13.11v5.54a18.33,18.33,0,0,1,6.78-4.62,23.72,23.72,0,0,1,8.89-1.63Q373,200,378.44,205.23Z" transform="translate(-1.76 -15.74)"/><path class="b" d="M426.35,205.19q5.89,5.24,5.9,15.79v27H419.4v-5.9q-3.87,6.6-14.43,6.6a22.43,22.43,0,0,1-9.46-1.84,14.2,14.2,0,0,1-6.12-5.11,13.33,13.33,0,0,1-2.11-7.39,12.34,12.34,0,0,1,5-10.38q5-3.79,15.36-3.79h10.91a8.76,8.76,0,0,0-2.73-6.91c-1.82-1.61-4.54-2.42-8.18-2.42a24,24,0,0,0-7.44,1.19,19.84,19.84,0,0,0-6.2,3.21L389,205.67a29.76,29.76,0,0,1,9.29-4.22,41.39,41.39,0,0,1,11.13-1.5Q420.46,200,426.35,205.19Zm-11.7,32.65a8.92,8.92,0,0,0,3.87-4.8V228.2h-9.41q-8.46,0-8.45,5.54a4.93,4.93,0,0,0,2.07,4.18,9.27,9.27,0,0,0,5.67,1.54A12,12,0,0,0,414.65,237.84Z" transform="translate(-1.76 -15.74)"/><path class="b" d="M481.75,205.23q5.42,5.28,5.41,15.67V248H473.43V223q0-5.64-2.46-8.41c-1.64-1.84-4-2.77-7.13-2.77a10.92,10.92,0,0,0-8.27,3.21q-3.07,3.22-3.08,9.55V248H438.76V200.66h13.11v5.54a18.33,18.33,0,0,1,6.78-4.62,23.72,23.72,0,0,1,8.89-1.63Q476.33,200,481.75,205.23Z" transform="translate(-1.76 -15.74)"/><path class="b" d="M503.48,245.58a23.24,23.24,0,0,1-12.8-21.25,23.21,23.21,0,0,1,12.8-21.25,29,29,0,0,1,13.6-3.13,26.28,26.28,0,0,1,13.07,3.13,18.54,18.54,0,0,1,8.14,8.93l-10.65,5.72q-3.69-6.51-10.65-6.51a12,12,0,0,0-8.89,3.52q-3.51,3.51-3.52,9.59t3.52,9.59a12,12,0,0,0,8.89,3.52c4.7,0,8.24-2.17,10.65-6.51l10.65,5.81a19,19,0,0,1-8.14,8.8,26.08,26.08,0,0,1-13.07,3.16A29.15,29.15,0,0,1,503.48,245.58Z" transform="translate(-1.76 -15.74)"/><path class="b" d="M585.81,228.2H550a11.16,11.16,0,0,0,4.58,7,15.15,15.15,0,0,0,9,2.55,18,18,0,0,0,6.56-1.1,15.8,15.8,0,0,0,5.32-3.47l7.31,7.92q-6.69,7.65-19.54,7.65A31,31,0,0,1,549,245.58a22.89,22.89,0,0,1-9.5-8.67,23.85,23.85,0,0,1-3.34-12.58,24.17,24.17,0,0,1,3.3-12.54,23.07,23.07,0,0,1,9.06-8.71,28.05,28.05,0,0,1,25.48-.14,21.92,21.92,0,0,1,8.84,8.58,25.63,25.63,0,0,1,3.21,13C586.07,224.68,586,225.91,585.81,228.2ZM553.69,213a11.24,11.24,0,0,0-3.87,7.21h23.32a11.33,11.33,0,0,0-3.88-7.17,11.55,11.55,0,0,0-7.74-2.68A11.81,11.81,0,0,0,553.69,213Z" transform="translate(-1.76 -15.74)"/><path class="b" d="M590,191.86a7.47,7.47,0,0,1,0-10.92,8.75,8.75,0,0,1,6.16-2.2,8.92,8.92,0,0,1,6.16,2.12,6.73,6.73,0,0,1,2.38,5.28,7.44,7.44,0,0,1-2.38,5.67,8.59,8.59,0,0,1-6.16,2.25A8.75,8.75,0,0,1,590,191.86Zm-.7,8.8h13.73V248H589.33Z" transform="translate(-1.76 -15.74)"/><path class="b" d="M629.68,201.71a24.66,24.66,0,0,1,9.63-1.76v12.67c-1.52-.11-2.55-.17-3.08-.17q-5.9,0-9.24,3.3t-3.34,9.9V248H609.92V200.66H623v6.24A15.35,15.35,0,0,1,629.68,201.71Z" transform="translate(-1.76 -15.74)"/><path class="b" d="M677.33,205.19q5.89,5.24,5.89,15.79v27H670.38v-5.9q-3.89,6.6-14.44,6.6a22.46,22.46,0,0,1-9.46-1.84,14.17,14.17,0,0,1-6.11-5.11,13.25,13.25,0,0,1-2.11-7.39,12.31,12.31,0,0,1,5-10.38q5-3.79,15.35-3.79H669.5a8.76,8.76,0,0,0-2.73-6.91q-2.73-2.42-8.19-2.42a23.91,23.91,0,0,0-7.43,1.19,19.89,19.89,0,0,0-6.21,3.21L640,205.67a29.7,29.7,0,0,1,9.28-4.22,41.5,41.5,0,0,1,11.13-1.5Q671.44,200,677.33,205.19Zm-11.71,32.65a9,9,0,0,0,3.88-4.8V228.2h-9.42q-8.45,0-8.45,5.54a4.93,4.93,0,0,0,2.07,4.18,9.3,9.3,0,0,0,5.68,1.54A12,12,0,0,0,665.62,237.84Z" transform="translate(-1.76 -15.74)"/><path class="b" d="M707.86,200.92h41.89v10.74H707.86Zm0,21.82h41.89v10.74H707.86Z" transform="translate(-1.76 -15.74)"/><path class="b" d="M814.56,203a21.76,21.76,0,0,1,8.49,8.53,28.16,28.16,0,0,1,0,25.61,21.79,21.79,0,0,1-8.49,8.54,24.16,24.16,0,0,1-12,3q-9.06,0-14.26-5.72v22.09H774.57V200.66h13.11v5.45q5.1-6.15,14.87-6.16A24.07,24.07,0,0,1,814.56,203Zm-5.72,30.89q3.39-3.57,3.39-9.55t-3.39-9.55a12.33,12.33,0,0,0-17.33,0q-3.39,3.57-3.39,9.55t3.39,9.55a12.33,12.33,0,0,0,17.33,0Z" transform="translate(-1.76 -15.74)"/><path class="b" d="M849.14,201.71a24.74,24.74,0,0,1,9.64-1.76v12.67c-1.53-.11-2.55-.17-3.08-.17q-5.9,0-9.24,3.3t-3.34,9.9V248H829.39V200.66H842.5v6.24A15.38,15.38,0,0,1,849.14,201.71Z" transform="translate(-1.76 -15.74)"/><path class="b" d="M869.74,245.58a23.2,23.2,0,0,1-9.29-8.67,25.38,25.38,0,0,1,0-25.17,23.25,23.25,0,0,1,9.29-8.66,30.23,30.23,0,0,1,26.79,0,23.31,23.31,0,0,1,9.24,8.66,25.31,25.31,0,0,1,0,25.17,23.26,23.26,0,0,1-9.24,8.67,30.31,30.31,0,0,1-26.79,0Zm22.09-11.7q3.38-3.57,3.38-9.55t-3.38-9.55a11.42,11.42,0,0,0-8.67-3.56,11.54,11.54,0,0,0-8.71,3.56q-3.44,3.57-3.44,9.55t3.44,9.55a11.58,11.58,0,0,0,8.71,3.56A11.46,11.46,0,0,0,891.83,233.88Z" transform="translate(-1.76 -15.74)"/><path class="b" d="M960.6,182.7V248H947.49v-5.46q-5.12,6.17-14.79,6.16a24.53,24.53,0,0,1-12.1-3,21.38,21.38,0,0,1-8.49-8.53,28.35,28.35,0,0,1,0-25.7,21.4,21.4,0,0,1,8.49-8.54,24.64,24.64,0,0,1,12.1-3q9.06,0,14.17,5.72v-23Zm-16.9,51.18q3.43-3.57,3.43-9.55t-3.43-9.55a12.33,12.33,0,0,0-17.33,0q-3.43,3.57-3.44,9.55t3.44,9.55a12.33,12.33,0,0,0,17.33,0Z" transform="translate(-1.76 -15.74)"/><path class="b" d="M1015.07,200.66V248h-13v-5.63a18.34,18.34,0,0,1-6.51,4.71,20.56,20.56,0,0,1-8.18,1.62q-9.33,0-14.79-5.36t-5.45-15.93V200.66h13.73v24.72q0,11.44,9.59,11.44a10.33,10.33,0,0,0,7.92-3.21q3-3.21,3-9.55v-23.4Z" transform="translate(-1.76 -15.74)"/><path class="b" d="M1052.47,245.71a14.13,14.13,0,0,1-5,2.25,25.64,25.64,0,0,1-6.21.74q-8.44,0-13.07-4.31t-4.62-12.67V212.27h-7.3V201.71h7.3V190.18h13.73v11.53h11.79v10.56h-11.79v19.27a6.43,6.43,0,0,0,1.54,4.62,5.7,5.7,0,0,0,4.36,1.63,8.76,8.76,0,0,0,5.54-1.76Z" transform="translate(-1.76 -15.74)"/><path class="b" d="M1055,191.86a7.45,7.45,0,0,1,0-10.92,8.73,8.73,0,0,1,6.16-2.2,8.92,8.92,0,0,1,6.16,2.12,6.77,6.77,0,0,1,2.38,5.28,7.48,7.48,0,0,1-2.38,5.67,8.59,8.59,0,0,1-6.16,2.25A8.73,8.73,0,0,1,1055,191.86Zm-.7,8.8H1068V248h-13.72Z" transform="translate(-1.76 -15.74)"/><path class="b" d="M1121.9,200.66l-20,47.34h-14.17l-19.88-47.34H1082l13.11,32.2,13.55-32.2Z" transform="translate(-1.76 -15.74)"/><path class="b" d="M1122.34,191.86a7.45,7.45,0,0,1,0-10.92,8.73,8.73,0,0,1,6.16-2.2,8.92,8.92,0,0,1,6.16,2.12,6.77,6.77,0,0,1,2.38,5.28,7.48,7.48,0,0,1-2.38,5.67,8.59,8.59,0,0,1-6.16,2.25A8.73,8.73,0,0,1,1122.34,191.86Zm-.71,8.8h13.73V248h-13.73Z" transform="translate(-1.76 -15.74)"/><path class="b" d="M1190.45,182.7V248h-13.11v-5.46q-5.1,6.17-14.79,6.16a24.49,24.49,0,0,1-12.09-3,21.47,21.47,0,0,1-8.5-8.53,28.35,28.35,0,0,1,0-25.7,21.49,21.49,0,0,1,8.5-8.54,24.6,24.6,0,0,1,12.09-3q9.08,0,14.17,5.72v-23Zm-16.9,51.18q3.43-3.57,3.44-9.55t-3.44-9.55a11.43,11.43,0,0,0-8.62-3.56,11.56,11.56,0,0,0-8.71,3.56q-3.43,3.57-3.43,9.55t3.43,9.55a11.59,11.59,0,0,0,8.71,3.56A11.47,11.47,0,0,0,1173.55,233.88Z" transform="translate(-1.76 -15.74)"/><path class="b" d="M1233.22,205.19q5.9,5.24,5.89,15.79v27h-12.85v-5.9q-3.87,6.6-14.43,6.6a22.43,22.43,0,0,1-9.46-1.84,14.17,14.17,0,0,1-6.11-5.11,13.26,13.26,0,0,1-2.12-7.39,12.32,12.32,0,0,1,5-10.38q5-3.79,15.35-3.79h10.91a8.79,8.79,0,0,0-2.72-6.91q-2.73-2.42-8.19-2.42a23.91,23.91,0,0,0-7.43,1.19,19.78,19.78,0,0,0-6.21,3.21l-4.93-9.59a29.87,29.87,0,0,1,9.29-4.22,41.5,41.5,0,0,1,11.13-1.5Q1227.32,200,1233.22,205.19Zm-11.71,32.65a8.92,8.92,0,0,0,3.87-4.8V228.2H1216q-8.45,0-8.45,5.54a4.93,4.93,0,0,0,2.07,4.18,9.29,9.29,0,0,0,5.67,1.54A12,12,0,0,0,1221.51,237.84Z" transform="translate(-1.76 -15.74)"/><path class="b" d="M1294.38,182.7V248h-13.12v-5.46q-5.1,6.17-14.78,6.16a24.53,24.53,0,0,1-12.1-3,21.38,21.38,0,0,1-8.49-8.53,28.35,28.35,0,0,1,0-25.7,21.4,21.4,0,0,1,8.49-8.54,24.64,24.64,0,0,1,12.1-3q9.06,0,14.17,5.72v-23Zm-16.9,51.18q3.43-3.57,3.43-9.55t-3.43-9.55a12.34,12.34,0,0,0-17.34,0,15,15,0,0,0,0,19.1,12.34,12.34,0,0,0,17.34,0Z" transform="translate(-1.76 -15.74)"/><path class="b" d="M1347.26,228.2h-35.81a11.15,11.15,0,0,0,4.57,7,15.19,15.19,0,0,0,9,2.55,18,18,0,0,0,6.55-1.1,15.83,15.83,0,0,0,5.33-3.47l7.3,7.92q-6.69,7.65-19.53,7.65a30.92,30.92,0,0,1-14.17-3.12,22.86,22.86,0,0,1-9.51-8.67,23.85,23.85,0,0,1-3.34-12.58,24.17,24.17,0,0,1,3.3-12.54,23.07,23.07,0,0,1,9.06-8.71,28.05,28.05,0,0,1,25.48-.14,21.92,21.92,0,0,1,8.84,8.58,25.53,25.53,0,0,1,3.22,13C1347.53,224.68,1347.44,225.91,1347.26,228.2ZM1315.14,213a11.24,11.24,0,0,0-3.87,7.21h23.32a11.36,11.36,0,0,0-3.87-7.17,11.58,11.58,0,0,0-7.75-2.68A11.81,11.81,0,0,0,1315.14,213Z" transform="translate(-1.76 -15.74)"/></g></g><g class="a"><g class="a"><path class="b" d="M10.74,166.25a30.06,30.06,0,0,1-9-3.65l4.58-9.86A28.71,28.71,0,0,0,14,156a31.76,31.76,0,0,0,8.8,1.28q8.72,0,8.71-4.31,0-2-2.37-2.91a35.77,35.77,0,0,0-7.31-1.49,69.7,69.7,0,0,1-9.59-2,14.85,14.85,0,0,1-6.55-4q-2.77-2.91-2.78-8.28a13,13,0,0,1,2.6-8,16.65,16.65,0,0,1,7.57-5.41A32.32,32.32,0,0,1,24.82,119a46.24,46.24,0,0,1,10,1.1,28.07,28.07,0,0,1,8.23,3l-4.57,9.77a27.32,27.32,0,0,0-13.64-3.52,13.86,13.86,0,0,0-6.6,1.23,3.62,3.62,0,0,0-2.2,3.17,3.15,3.15,0,0,0,2.37,3.08A43.07,43.07,0,0,0,26,138.49a78.41,78.41,0,0,1,9.5,2.07,14.2,14.2,0,0,1,6.43,4q2.73,2.91,2.73,8.1A12.51,12.51,0,0,1,42,160.49a16.84,16.84,0,0,1-7.7,5.32,34.39,34.39,0,0,1-12,1.89A45.81,45.81,0,0,1,10.74,166.25Z" transform="translate(-1.76 -15.74)"/><path class="b" d="M83.16,124.19q5.9,5.24,5.9,15.79v27H76.21v-5.9q-3.87,6.6-14.44,6.6a22.46,22.46,0,0,1-9.46-1.84,14.22,14.22,0,0,1-6.11-5.11,13.25,13.25,0,0,1-2.11-7.39,12.31,12.31,0,0,1,5-10.38q5-3.79,15.36-3.79H75.33a8.76,8.76,0,0,0-2.73-6.91q-2.73-2.42-8.18-2.42A23.93,23.93,0,0,0,57,131.05a19.89,19.89,0,0,0-6.21,3.21l-4.92-9.59a29.7,29.7,0,0,1,9.28-4.22A41.5,41.5,0,0,1,66.26,119Q77.27,119,83.16,124.19Zm-11.7,32.65a9,9,0,0,0,3.87-4.8V147.2H65.91q-8.44,0-8.45,5.54a4.93,4.93,0,0,0,2.07,4.18,9.3,9.3,0,0,0,5.68,1.54A12,12,0,0,0,71.46,156.84Z" transform="translate(-1.76 -15.74)"/><path class="b" d="M143.26,119.66V167h-13v-5.63a18.34,18.34,0,0,1-6.51,4.71,20.61,20.61,0,0,1-8.19,1.62q-9.33,0-14.78-5.36T95.3,146.41V119.66H109v24.72q0,11.44,9.59,11.44a10.3,10.3,0,0,0,7.92-3.21q3-3.21,3-9.55v-23.4Zm-20.15-18.75h14.78L122,113.58H111.23Z" transform="translate(-1.76 -15.74)"/><path class="b" d="M198.35,101.7V167H185.24v-5.46q-5.12,6.17-14.79,6.16a24.56,24.56,0,0,1-12.1-3,21.5,21.5,0,0,1-8.49-8.53,28.35,28.35,0,0,1,0-25.7,21.53,21.53,0,0,1,8.49-8.54,24.66,24.66,0,0,1,12.1-3q9.08,0,14.17,5.72v-23Zm-16.9,51.18q3.44-3.57,3.44-9.55t-3.44-9.55a11.43,11.43,0,0,0-8.62-3.56,11.56,11.56,0,0,0-8.71,3.56q-3.44,3.57-3.43,9.55t3.43,9.55a11.59,11.59,0,0,0,8.71,3.56A11.47,11.47,0,0,0,181.45,152.88Z" transform="translate(-1.76 -15.74)"/><path class="b" d="M251.24,147.2H215.42a11.16,11.16,0,0,0,4.58,7,15.13,15.13,0,0,0,9,2.55,18,18,0,0,0,6.56-1.1,15.89,15.89,0,0,0,5.32-3.47l7.31,7.92q-6.69,7.65-19.54,7.65a31,31,0,0,1-14.17-3.12,22.89,22.89,0,0,1-9.5-8.67,23.86,23.86,0,0,1-3.35-12.58,24.17,24.17,0,0,1,3.3-12.54,23.1,23.1,0,0,1,9.07-8.71,28,28,0,0,1,25.47-.14,21.88,21.88,0,0,1,8.85,8.58,25.63,25.63,0,0,1,3.21,13C251.5,143.68,251.41,144.91,251.24,147.2ZM219.12,132a11.2,11.2,0,0,0-3.88,7.21h23.32a11.36,11.36,0,0,0-3.87-7.17,11.55,11.55,0,0,0-7.74-2.68A11.81,11.81,0,0,0,219.12,132Z" transform="translate(-1.76 -15.74)"/><path class="b" d="M288.81,120.71H301v10.56h-11.8V167H275.44V131.27h-7.31V120.71h7.31V118.6q0-8.1,4.79-12.85T293.74,101a25.21,25.21,0,0,1,5.85.66,14.21,14.21,0,0,1,4.62,1.89l-3.61,10a9.34,9.34,0,0,0-5.54-1.68q-6.26,0-6.25,6.87Zm26.75-9.85a7.47,7.47,0,0,1,0-10.92,8.75,8.75,0,0,1,6.16-2.2,8.9,8.9,0,0,1,6.16,2.12,6.73,6.73,0,0,1,2.38,5.28,7.44,7.44,0,0,1-2.38,5.67,8.57,8.57,0,0,1-6.16,2.25A8.75,8.75,0,0,1,315.56,110.86Zm-.7,8.8h13.73V167H314.86Z" transform="translate(-1.76 -15.74)"/><path class="b" d="M378.44,124.23q5.42,5.28,5.41,15.67V167H370.12V142q0-5.64-2.46-8.41c-1.64-1.84-4-2.77-7.13-2.77a10.92,10.92,0,0,0-8.27,3.21q-3.09,3.22-3.08,9.55V167H335.45V119.66h13.11v5.54a18.33,18.33,0,0,1,6.78-4.62,23.72,23.72,0,0,1,8.89-1.63Q373,119,378.44,124.23Z" transform="translate(-1.76 -15.74)"/><path class="b" d="M426.35,124.19q5.89,5.24,5.9,15.79v27H419.4v-5.9q-3.87,6.6-14.43,6.6a22.43,22.43,0,0,1-9.46-1.84,14.2,14.2,0,0,1-6.12-5.11,13.33,13.33,0,0,1-2.11-7.39,12.34,12.34,0,0,1,5-10.38q5-3.79,15.36-3.79h10.91a8.76,8.76,0,0,0-2.73-6.91c-1.82-1.61-4.54-2.42-8.18-2.42a24,24,0,0,0-7.44,1.19,19.84,19.84,0,0,0-6.2,3.21L389,124.67a29.76,29.76,0,0,1,9.29-4.22,41.39,41.39,0,0,1,11.13-1.5Q420.46,119,426.35,124.19Zm-11.7,32.65a8.92,8.92,0,0,0,3.87-4.8V147.2h-9.41q-8.46,0-8.45,5.54a4.93,4.93,0,0,0,2.07,4.18,9.27,9.27,0,0,0,5.67,1.54A12,12,0,0,0,414.65,156.84Z" transform="translate(-1.76 -15.74)"/><path class="b" d="M481.75,124.23q5.42,5.28,5.41,15.67V167H473.43V142q0-5.64-2.46-8.41c-1.64-1.84-4-2.77-7.13-2.77a10.92,10.92,0,0,0-8.27,3.21q-3.07,3.22-3.08,9.55V167H438.76V119.66h13.11v5.54a18.33,18.33,0,0,1,6.78-4.62,23.72,23.72,0,0,1,8.89-1.63Q476.33,119,481.75,124.23Z" transform="translate(-1.76 -15.74)"/><path class="b" d="M503.48,164.58a23.24,23.24,0,0,1-12.8-21.25,23.21,23.21,0,0,1,12.8-21.25,29,29,0,0,1,13.6-3.13,26.28,26.28,0,0,1,13.07,3.13,18.54,18.54,0,0,1,8.14,8.93l-10.65,5.72q-3.69-6.51-10.65-6.51a12,12,0,0,0-8.89,3.52q-3.51,3.51-3.52,9.59t3.52,9.59a12,12,0,0,0,8.89,3.52c4.7,0,8.24-2.17,10.65-6.51l10.65,5.81a19,19,0,0,1-8.14,8.8,26.08,26.08,0,0,1-13.07,3.16A29.15,29.15,0,0,1,503.48,164.58Z" transform="translate(-1.76 -15.74)"/><path class="b" d="M585.81,147.2H550a11.16,11.16,0,0,0,4.58,7,15.15,15.15,0,0,0,9,2.55,18,18,0,0,0,6.56-1.1,15.8,15.8,0,0,0,5.32-3.47l7.31,7.92q-6.69,7.65-19.54,7.65A31,31,0,0,1,549,164.58a22.89,22.89,0,0,1-9.5-8.67,23.85,23.85,0,0,1-3.34-12.58,24.17,24.17,0,0,1,3.3-12.54,23.07,23.07,0,0,1,9.06-8.71,28.05,28.05,0,0,1,25.48-.14,21.92,21.92,0,0,1,8.84,8.58,25.63,25.63,0,0,1,3.21,13C586.07,143.68,586,144.91,585.81,147.2ZM553.69,132a11.24,11.24,0,0,0-3.87,7.21h23.32a11.33,11.33,0,0,0-3.88-7.17,11.55,11.55,0,0,0-7.74-2.68A11.81,11.81,0,0,0,553.69,132Z" transform="translate(-1.76 -15.74)"/><path class="b" d="M590,110.86a7.47,7.47,0,0,1,0-10.92,8.75,8.75,0,0,1,6.16-2.2,8.92,8.92,0,0,1,6.16,2.12,6.73,6.73,0,0,1,2.38,5.28,7.44,7.44,0,0,1-2.38,5.67,8.59,8.59,0,0,1-6.16,2.25A8.75,8.75,0,0,1,590,110.86Zm-.7,8.8h13.73V167H589.33Z" transform="translate(-1.76 -15.74)"/><path class="b" d="M629.68,120.71a24.66,24.66,0,0,1,9.63-1.76v12.67c-1.52-.11-2.55-.17-3.08-.17q-5.9,0-9.24,3.3t-3.34,9.9V167H609.92V119.66H623v6.24A15.35,15.35,0,0,1,629.68,120.71Z" transform="translate(-1.76 -15.74)"/><path class="b" d="M677.33,124.19q5.89,5.24,5.89,15.79v27H670.38v-5.9q-3.89,6.6-14.44,6.6a22.46,22.46,0,0,1-9.46-1.84,14.17,14.17,0,0,1-6.11-5.11,13.25,13.25,0,0,1-2.11-7.39,12.31,12.31,0,0,1,5-10.38q5-3.79,15.35-3.79H669.5a8.76,8.76,0,0,0-2.73-6.91q-2.73-2.42-8.19-2.42a23.91,23.91,0,0,0-7.43,1.19,19.89,19.89,0,0,0-6.21,3.21L640,124.67a29.7,29.7,0,0,1,9.28-4.22,41.5,41.5,0,0,1,11.13-1.5Q671.44,119,677.33,124.19Zm-11.71,32.65a9,9,0,0,0,3.88-4.8V147.2h-9.42q-8.45,0-8.45,5.54a4.93,4.93,0,0,0,2.07,4.18,9.3,9.3,0,0,0,5.68,1.54A12,12,0,0,0,665.62,156.84Z" transform="translate(-1.76 -15.74)"/><path class="b" d="M707.86,119.92h41.89v10.74H707.86Zm0,21.82h41.89v10.74H707.86Z" transform="translate(-1.76 -15.74)"/><path class="b" d="M814.56,122a21.76,21.76,0,0,1,8.49,8.53,28.16,28.16,0,0,1,0,25.61,21.79,21.79,0,0,1-8.49,8.54,24.16,24.16,0,0,1-12,3q-9.06,0-14.26-5.72v22.09H774.57V119.66h13.11v5.45q5.1-6.15,14.87-6.16A24.07,24.07,0,0,1,814.56,122Zm-5.72,30.89q3.39-3.57,3.39-9.55t-3.39-9.55a12.33,12.33,0,0,0-17.33,0q-3.39,3.57-3.39,9.55t3.39,9.55a12.33,12.33,0,0,0,17.33,0Z" transform="translate(-1.76 -15.74)"/><path class="b" d="M849.14,120.71a24.74,24.74,0,0,1,9.64-1.76v12.67c-1.53-.11-2.55-.17-3.08-.17q-5.9,0-9.24,3.3t-3.34,9.9V167H829.39V119.66H842.5v6.24A15.38,15.38,0,0,1,849.14,120.71Z" transform="translate(-1.76 -15.74)"/><path class="b" d="M869.74,164.58a23.2,23.2,0,0,1-9.29-8.67,25.38,25.38,0,0,1,0-25.17,23.25,23.25,0,0,1,9.29-8.66,30.23,30.23,0,0,1,26.79,0,23.31,23.31,0,0,1,9.24,8.66,25.31,25.31,0,0,1,0,25.17,23.26,23.26,0,0,1-9.24,8.67,30.31,30.31,0,0,1-26.79,0Zm22.09-11.7q3.38-3.57,3.38-9.55t-3.38-9.55a11.42,11.42,0,0,0-8.67-3.56,11.54,11.54,0,0,0-8.71,3.56q-3.44,3.57-3.44,9.55t3.44,9.55a11.58,11.58,0,0,0,8.71,3.56A11.46,11.46,0,0,0,891.83,152.88Z" transform="translate(-1.76 -15.74)"/><path class="b" d="M960.6,101.7V167H947.49v-5.46q-5.12,6.17-14.79,6.16a24.53,24.53,0,0,1-12.1-3,21.38,21.38,0,0,1-8.49-8.53,28.35,28.35,0,0,1,0-25.7,21.4,21.4,0,0,1,8.49-8.54,24.64,24.64,0,0,1,12.1-3q9.06,0,14.17,5.72v-23Zm-16.9,51.18q3.43-3.57,3.43-9.55t-3.43-9.55a12.33,12.33,0,0,0-17.33,0q-3.43,3.57-3.44,9.55t3.44,9.55a12.33,12.33,0,0,0,17.33,0Z" transform="translate(-1.76 -15.74)"/><path class="b" d="M1015.07,119.66V167h-13v-5.63a18.34,18.34,0,0,1-6.51,4.71,20.56,20.56,0,0,1-8.18,1.62q-9.33,0-14.79-5.36t-5.45-15.93V119.66h13.73v24.72q0,11.44,9.59,11.44a10.33,10.33,0,0,0,7.92-3.21q3-3.21,3-9.55v-23.4Z" transform="translate(-1.76 -15.74)"/><path class="b" d="M1052.47,164.71a14.13,14.13,0,0,1-5,2.25,25.64,25.64,0,0,1-6.21.74q-8.44,0-13.07-4.31t-4.62-12.67V131.27h-7.3V120.71h7.3V109.18h13.73v11.53h11.79v10.56h-11.79v19.27a6.43,6.43,0,0,0,1.54,4.62,5.7,5.7,0,0,0,4.36,1.63,8.76,8.76,0,0,0,5.54-1.76Z" transform="translate(-1.76 -15.74)"/><path class="b" d="M1055,110.86a7.45,7.45,0,0,1,0-10.92,8.73,8.73,0,0,1,6.16-2.2,8.92,8.92,0,0,1,6.16,2.12,6.77,6.77,0,0,1,2.38,5.28,7.48,7.48,0,0,1-2.38,5.67,8.59,8.59,0,0,1-6.16,2.25A8.73,8.73,0,0,1,1055,110.86Zm-.7,8.8H1068V167h-13.72Z" transform="translate(-1.76 -15.74)"/><path class="b" d="M1121.9,119.66l-20,47.34h-14.17l-19.88-47.34H1082l13.11,32.2,13.55-32.2Z" transform="translate(-1.76 -15.74)"/><path class="b" d="M1122.34,110.86a7.45,7.45,0,0,1,0-10.92,8.73,8.73,0,0,1,6.16-2.2,8.92,8.92,0,0,1,6.16,2.12,6.77,6.77,0,0,1,2.38,5.28,7.48,7.48,0,0,1-2.38,5.67,8.59,8.59,0,0,1-6.16,2.25A8.73,8.73,0,0,1,1122.34,110.86Zm-.71,8.8h13.73V167h-13.73Z" transform="translate(-1.76 -15.74)"/><path class="b" d="M1190.45,101.7V167h-13.11v-5.46q-5.1,6.17-14.79,6.16a24.49,24.49,0,0,1-12.09-3,21.47,21.47,0,0,1-8.5-8.53,28.35,28.35,0,0,1,0-25.7,21.49,21.49,0,0,1,8.5-8.54,24.6,24.6,0,0,1,12.09-3q9.08,0,14.17,5.72v-23Zm-16.9,51.18q3.43-3.57,3.44-9.55t-3.44-9.55a11.43,11.43,0,0,0-8.62-3.56,11.56,11.56,0,0,0-8.71,3.56q-3.43,3.57-3.43,9.55t3.43,9.55a11.59,11.59,0,0,0,8.71,3.56A11.47,11.47,0,0,0,1173.55,152.88Z" transform="translate(-1.76 -15.74)"/><path class="b" d="M1233.22,124.19q5.9,5.24,5.89,15.79v27h-12.85v-5.9q-3.87,6.6-14.43,6.6a22.43,22.43,0,0,1-9.46-1.84,14.17,14.17,0,0,1-6.11-5.11,13.26,13.26,0,0,1-2.12-7.39,12.32,12.32,0,0,1,5-10.38q5-3.79,15.35-3.79h10.91a8.79,8.79,0,0,0-2.72-6.91q-2.73-2.42-8.19-2.42a23.91,23.91,0,0,0-7.43,1.19,19.78,19.78,0,0,0-6.21,3.21l-4.93-9.59a29.87,29.87,0,0,1,9.29-4.22,41.5,41.5,0,0,1,11.13-1.5Q1227.32,119,1233.22,124.19Zm-11.71,32.65a8.92,8.92,0,0,0,3.87-4.8V147.2H1216q-8.45,0-8.45,5.54a4.93,4.93,0,0,0,2.07,4.18,9.29,9.29,0,0,0,5.67,1.54A12,12,0,0,0,1221.51,156.84Z" transform="translate(-1.76 -15.74)"/><path class="b" d="M1294.38,101.7V167h-13.12v-5.46q-5.1,6.17-14.78,6.16a24.53,24.53,0,0,1-12.1-3,21.38,21.38,0,0,1-8.49-8.53,28.35,28.35,0,0,1,0-25.7,21.4,21.4,0,0,1,8.49-8.54,24.64,24.64,0,0,1,12.1-3q9.06,0,14.17,5.72v-23Zm-16.9,51.18q3.43-3.57,3.43-9.55t-3.43-9.55a12.34,12.34,0,0,0-17.34,0,15,15,0,0,0,0,19.1,12.34,12.34,0,0,0,17.34,0Z" transform="translate(-1.76 -15.74)"/><path class="b" d="M1347.26,147.2h-35.81a11.15,11.15,0,0,0,4.57,7,15.19,15.19,0,0,0,9,2.55,18,18,0,0,0,6.55-1.1,15.83,15.83,0,0,0,5.33-3.47l7.3,7.92q-6.69,7.65-19.53,7.65a30.92,30.92,0,0,1-14.17-3.12,22.86,22.86,0,0,1-9.51-8.67,23.85,23.85,0,0,1-3.34-12.58,24.17,24.17,0,0,1,3.3-12.54,23.07,23.07,0,0,1,9.06-8.71,28.05,28.05,0,0,1,25.48-.14,21.92,21.92,0,0,1,8.84,8.58,25.53,25.53,0,0,1,3.22,13C1347.53,143.68,1347.44,144.91,1347.26,147.2ZM1315.14,132a11.24,11.24,0,0,0-3.87,7.21h23.32a11.36,11.36,0,0,0-3.87-7.17,11.58,11.58,0,0,0-7.75-2.68A11.81,11.81,0,0,0,1315.14,132Z" transform="translate(-1.76 -15.74)"/></g></g></svg>