<svg xmlns="http://www.w3.org/2000/svg" viewBox="0 0 1324.03 644.92"><defs><style>.a{isolation:isolate;}.b{fill:#fff;}</style></defs><g class="a"><g class="a"><path class="b" d="M178.94,374.5Q158.78,385.95,124,386,78.6,386,54.12,364T29.63,298.26V243H0V177.79H29.63V117.35H118.9v60.44h44.23V243H118.9v54.51q0,9.88,5.13,15.41t13.43,5.53a34.89,34.89,0,0,0,20.14-5.93Z" transform="translate(0 -79.04)"/><path class="b" d="M379.59,187.46q30,25.48,30,78.41V382H326.66V353.56Q311.26,386,265.44,386q-25.68,0-43.65-8.89T194.53,353a64.27,64.27,0,0,1-9.28-34.17q0-32,24.49-48.59T284,253.63H320q-4.35-25.27-40.69-25.29a101.81,101.81,0,0,0-29.62,4.55A83.43,83.43,0,0,0,224,245.33l-28.44-58.86q18.57-11.44,44.83-18A216.9,216.9,0,0,1,292.69,162Q349.57,162,379.59,187.46ZM313.63,79h84.92l-77.81,63.2H261.49Zm-4.35,248q7.5-5.11,11.06-15.4v-15H298.22q-27.25,0-27.25,18.17a15.7,15.7,0,0,0,5.72,12.44q5.73,4.95,15.61,4.94A29.31,29.31,0,0,0,309.28,327.09Z" transform="translate(0 -79.04)"/></g><g class="a"><path class="b" d="M203.42,525.46q30,25.49,30,78.41V720H150.5V691.56Q135.09,724,89.27,724q-25.68,0-43.65-8.89T18.37,691A64.28,64.28,0,0,1,9.08,656.8q0-32,24.5-48.59t74.25-16.58h36q-4.35-25.27-40.68-25.29a101.83,101.83,0,0,0-29.63,4.55,83.43,83.43,0,0,0-25.68,12.44L19.35,524.47q18.57-11.44,44.84-18A216.88,216.88,0,0,1,116.52,500Q173.4,500,203.42,525.46Zm-70.3,139.63c5-3.41,8.69-8.55,11-15.4v-15H122.06q-27.27,0-27.26,18.17a15.71,15.71,0,0,0,5.73,12.44q5.72,5,15.6,4.94A29.36,29.36,0,0,0,133.12,665.09Z" transform="translate(0 -79.04)"/><path class="b" d="M480.91,524.08q24.29,24.1,24.29,72.68V720H415.93V612.17q0-37.12-26.46-37.13-15,0-24.3,10.46t-9.28,33V720H266.62V426.91h89.27v94.41Q380.78,500,416.72,500,456.62,500,480.91,524.08Z" transform="translate(0 -79.04)"/><path class="b" d="M634.76,515.79h47V581H637.53V720H548.26V581H518.63V515.79h29.63V514.6q0-42.25,25.28-67T644.64,423a153.93,153.93,0,0,1,29.23,2.76q14.22,2.77,23.7,7.91l-21.33,62q-11.07-5.13-20.15-5.14-9.89,0-15.6,6.13t-5.73,18.76ZM744,473.72q-14.82-12.84-14.81-32.59T744,408.54q14.81-12.82,38.9-12.83,24.5,0,39.11,12.24t14.62,31.6q0,20.55-14.62,33.77t-39.11,13.23Q758.79,486.55,744,473.72Zm-5.73,30.21h89.27V720H738.25Z" transform="translate(0 -79.04)"/><path class="b" d="M1075.77,524.08q24.3,24.1,24.29,72.68V720h-89.27V612.17q0-37.12-26.46-37.13-15,0-24.29,10.46t-9.29,33V720H861.48V503.93h84.93v21.33a82.5,82.5,0,0,1,29.23-19,100.41,100.41,0,0,1,35.94-6.31Q1051.48,500,1075.77,524.08Z" transform="translate(0 -79.04)"/><path class="b" d="M1187.75,583.13q8.31-12.43,23.71-27a151.36,151.36,0,0,0,14.41-15.41,20.4,20.4,0,0,0,4.55-12.64q0-8.68-7.51-13.63t-19-4.94a42.21,42.21,0,0,0-23.7,7.31,51.11,51.11,0,0,0-17.38,19.56l-70.31-35.16q15.8-30,46.81-47t76.43-17q48.18,0,78.21,19.75t30,55.7q0,16.57-5.73,29a79,79,0,0,1-13.62,20.93,228.65,228.65,0,0,1-20.15,18.77q-12.65,11.05-18.17,17.77a23,23,0,0,0-5.53,15h-81.37Q1179.46,595.59,1187.75,583.13Zm-5.13,127Q1168,696.3,1168,676.55q0-20.14,14.62-33.38t37.53-13.23q22.89,0,37.52,13.23t14.62,33.38q0,19.76-14.62,33.58T1220.15,724Q1197.23,724,1182.62,710.13Z" transform="translate(0 -79.04)"/></g></g></svg>