<svg xmlns="http://www.w3.org/2000/svg" width="155.44" height="159" viewBox="0 0 155.44 159"><g transform="translate(-146.222 -2601)"><path d="M73.887,6a39.981,39.981,0,1,0,39.981,39.981A40.07,40.07,0,0,0,73.887,6Zm0,7.228A32.753,32.753,0,1,1,41.078,45.981,32.684,32.684,0,0,1,73.887,13.228Zm.17,7.849a3.614,3.614,0,0,0-3.162,3.67v2.2c-5.146,1.484-9.148,5.567-9.148,10.955a10.435,10.435,0,0,0,4.235,8.358,22.976,22.976,0,0,0,7.567,3.162A18.754,18.754,0,0,1,78.8,51.515a2.22,2.22,0,0,1,1.242,2.428c0,1.974-2.386,4.348-6.268,4.348a20.128,20.128,0,0,1-6.1-1.242,3.614,3.614,0,1,0-4.687,5.478,13.316,13.316,0,0,0,7.906,2.936v1.75a3.614,3.614,0,1,0,7.228,0V64.9c5.131-1.5,9.148-5.588,9.148-10.955a10.37,10.37,0,0,0-4.292-8.3,22.7,22.7,0,0,0-7.511-3.162,18.75,18.75,0,0,1-5.252-2.089,2.3,2.3,0,0,1-1.242-2.485c0-1.974,2.329-4.348,6.212-4.348a19.658,19.658,0,0,1,6.1,1.3,3.626,3.626,0,1,0,4.687-5.534,13.206,13.206,0,0,0-7.849-2.88V24.748a3.614,3.614,0,0,0-4.066-3.67Z" transform="translate(150.055 2595)" fill="#32aad8"/><path d="M18.641,32.445a8.461,8.461,0,0,0-3.388.791,7.744,7.744,0,0,0-4.122,6.212L7.121,85.753c-.5,5.862.213,14.048,6.494,20.329l25.242,25.242c2.248,2.247,3.138,3.61,3.162,5.816l.113,11.915A3.614,3.614,0,1,0,49.36,149l-.113-11.915c-.05-4.584-2.547-8.138-5.308-10.9L18.7,100.943c-4.256-4.255-4.762-9.761-4.348-14.569l4.009-46.305c.023-.265.012-.268,0-.282a2.817,2.817,0,0,1,1.581.056A6.7,6.7,0,0,1,24.4,44.36l4.066,18.974a3.614,3.614,0,1,0,7.059-1.525L31.459,42.836A13.388,13.388,0,0,0,21.916,32.9,11.018,11.018,0,0,0,18.641,32.445Zm132.139,0a11.012,11.012,0,0,0-3.275.452,13.387,13.387,0,0,0-9.543,9.939L133.9,61.81a3.614,3.614,0,1,0,7.059,1.525L145.02,44.36a6.7,6.7,0,0,1,4.461-4.518,2.818,2.818,0,0,1,1.581-.056c-.012.014-.023.017,0,.282l4.009,46.305c.414,4.809-.093,10.314-4.348,14.569l-25.242,25.242c-2.761,2.761-5.258,6.314-5.308,10.9L120.06,149a3.614,3.614,0,1,0,7.228.056l.113-11.915c.024-2.207.915-3.569,3.162-5.816l25.242-25.242c6.281-6.281,7-14.467,6.494-20.329l-4.009-46.305a7.745,7.745,0,0,0-4.122-6.212A8.458,8.458,0,0,0,150.78,32.445ZM32.476,71.3c-5.218.7-8.451,5.024-9.713,9.261C21.534,84.685,21.748,89.538,25.3,92.7l-.056.057.282.226,20.047,20.1a3.614,3.614,0,1,0,5.083-5.139L30.386,87.673a3.617,3.617,0,0,0-.282-.282c-.5-.41-1.135-2.506-.452-4.8A5.881,5.881,0,0,1,32.137,79.2L47.5,94.562a3.615,3.615,0,0,0,2.372,1.073c12.19.62,20.048,7.251,20.668,15.924l2.823,39.416a3.623,3.623,0,1,0,7.228-.508l-2.824-39.473c-.878-12.283-11.854-20.883-25.807-22.249L35.525,72.369A3.614,3.614,0,0,0,32.476,71.3Zm103.735,0a3.615,3.615,0,0,0-2.315,1.073L117.463,88.746c-13.953,1.366-24.929,9.967-25.807,22.249l-2.823,39.472a3.623,3.623,0,1,0,7.228.508l2.823-39.416c.62-8.674,8.478-15.3,20.668-15.924a3.614,3.614,0,0,0,2.372-1.073l15.36-15.36a5.883,5.883,0,0,1,2.485,3.388c.683,2.294.048,4.39-.452,4.8a3.617,3.617,0,0,0-.282.282l-20.273,20.273a3.614,3.614,0,1,0,5.083,5.139l20.046-20.1.282-.226-.057-.057c3.556-3.16,3.77-8.013,2.541-12.141-1.262-4.237-4.5-8.563-9.713-9.261A3.618,3.618,0,0,0,136.211,71.3Z" transform="translate(139.232 2605.656)" fill="#df346c"/></g></svg>