<svg xmlns="http://www.w3.org/2000/svg" width="309.358" height="123.705" viewBox="0 0 309.358 123.705"><g transform="translate(-533.286 -1035.258)"><g transform="translate(629.012 1035.258)"><path d="M11.08,16.148A15.148,15.148,0,1,0,26.228,1,15.148,15.148,0,0,0,11.08,16.148ZM26.228,7.311a8.831,8.831,0,1,1-.013,0Z" transform="translate(-0.326 -1)" fill="#755d9d"/><path d="M6.082,36.35A13.885,13.885,0,0,0,2.648,47.143h0L5.766,70.634A12.169,12.169,0,0,0,11.951,79.9L17,116.632a7.3,7.3,0,0,0,7.2,6.476h8.319a7.3,7.3,0,0,0,7.208-6.526l2.525-22.507,4.923-37.6,5.592,4.62a8.836,8.836,0,0,0,10.944.164l4.847-3.787V83.977H62.241a3.143,3.143,0,0,0-3.08,2.525l-6.311,32.82a3.143,3.143,0,0,0,3.08,3.787H87.563a3.143,3.143,0,0,0,3.08-3.787L84.23,86.5a3.143,3.143,0,0,0-3.08-2.525H74.839V52.419l5.453-4.3A8.836,8.836,0,0,0,82.526,36.5a8.748,8.748,0,0,0-7.46-4.153h-.2v-22.1a3.156,3.156,0,1,0-6.311,0V35.063l-10.1,7.99L47.094,33.724a8.836,8.836,0,0,0-5.579-2.007H36.339a3.661,3.661,0,0,0-2.84,1.363l-5.138,6.425-5.125-6.4a3.635,3.635,0,0,0-2.865-1.389H16.42A13.885,13.885,0,0,0,6.082,36.35ZM83.751,116.8H59.767l5.2-26.508H78.6ZM10.765,40.528A7.5,7.5,0,0,1,16.42,38h2.689l5.781,7.22a4.443,4.443,0,0,0,6.943,0L37.614,38h3.964a2.525,2.525,0,0,1,1.59.568L56.422,49.516a3.143,3.143,0,0,0,3.938,0L73.539,39.165a2.459,2.459,0,0,1,3.673.732,2.663,2.663,0,0,1-.77,3.4l-16.523,13a2.525,2.525,0,0,1-3.143,0L46.8,48.064a3.143,3.143,0,0,0-5.049,2.02L35.935,93.3v.063l-2.4,22.519a1.022,1.022,0,0,1-1.01.909H24.2a1.022,1.022,0,0,1-1.022-.909v-.063L17.909,77.35a3.143,3.143,0,0,0-2.032-2.525A5.945,5.945,0,0,1,11.951,69.9h0L8.871,46.411A7.485,7.485,0,0,1,10.765,40.528Z" transform="translate(-2.561 0.597)" fill="#755d9d"/><path d="M93.685,49.69c6.715-.114,11.436-5.049,11.638-5.3a3.143,3.143,0,0,0,.846-2.146V14.548a3.143,3.143,0,0,0-5.428-2.146,11.512,11.512,0,0,1-7.157,3.307,9.846,9.846,0,0,1-7.069-3.383C82.8,8.615,78.84,6.86,74.763,7.125a15.148,15.148,0,0,0-10.1,5.5,3.143,3.143,0,0,0,4.973,3.787,8.836,8.836,0,0,1,5.541-3.067c2.209-.139,4.532,1,6.917,3.37,3.534,3.534,7.448,5.289,11.626,5.226a15.3,15.3,0,0,0,6.2-1.49v20.4a10.818,10.818,0,0,1-6.311,2.525A9.922,9.922,0,0,1,86.578,40a16.271,16.271,0,0,0-9.758-5.125,3.143,3.143,0,0,0-.669,6.185,10.275,10.275,0,0,1,5.908,3.358A15.93,15.93,0,0,0,93.42,49.64Z" transform="translate(13.609 0.6)" fill="#755d9d"/></g><path d="M1640.007,1136.175l17.911,19.237-17.911,19.237" transform="translate(-1101.774 -57.221)" fill="none" stroke="#df346c" stroke-linecap="round" stroke-linejoin="round" stroke-width="7"/><path d="M1640.007,1136.175l17.911,19.237-17.911,19.237" transform="translate(-864.774 -57.221)" fill="none" stroke="#32aad8" stroke-linecap="round" stroke-linejoin="round" stroke-width="7"/><path d="M1640.007,1136.175l17.911,19.237-17.911,19.237" transform="translate(-1055.774 -57.221)" fill="none" stroke="#df346c" stroke-linecap="round" stroke-linejoin="round" stroke-width="7"/><path d="M1640.007,1136.175l17.911,19.237-17.911,19.237" transform="translate(-818.774 -57.221)" fill="none" stroke="#32aad8" stroke-linecap="round" stroke-linejoin="round" stroke-width="7"/><path d="M1640.007,1136.175l17.911,19.237-17.911,19.237" transform="translate(-1078.774 -57.221)" fill="none" stroke="#df346c" stroke-linecap="round" stroke-linejoin="round" stroke-width="7"/><path d="M1640.007,1136.175l17.911,19.237-17.911,19.237" transform="translate(-841.774 -57.221)" fill="none" stroke="#32aad8" stroke-linecap="round" stroke-linejoin="round" stroke-width="7"/></g></svg>