<svg xmlns="http://www.w3.org/2000/svg" width="193" height="65.638" viewBox="0 0 193 65.638"><g transform="translate(-329.932 -187.5)"><path d="M362.71,238.476v-4.163h10.942v1.073q0,19.194.018,38.388c0,.875-.176,1.2-1.124,1.18-2.907-.062-5.816-.021-8.723-.025-.325,0-.649-.027-1.091-.047v-4.025c-.34.271-.526.4-.694.555a17.4,17.4,0,0,1-11.853,4.56,19.347,19.347,0,0,1-19.054-14.1c-1.9-6.43-1.694-12.831,1.736-18.758,4.164-7.2,10.613-10.394,18.855-9.882a16.188,16.188,0,0,1,10.4,4.738C362.255,238.091,362.4,238.2,362.71,238.476Zm-10.686,26.91c5.884.387,10.86-5.3,10.939-10.655.086-5.761-4.917-11.085-10.783-11.016a10.891,10.891,0,0,0-10.8,10.774C341.258,259.257,345.477,265.638,352.024,265.386Z" transform="translate(0 -22.836)" fill="#fff"/><path d="M447.018,203.589v21.133c.445-.57.718-.942,1.014-1.294a14.355,14.355,0,0,1,9.546-5.016,15.836,15.836,0,0,1,13.1,3.83,14.658,14.658,0,0,1,4.753,9.4,30.817,30.817,0,0,1,.21,3.939c.018,7.791-.007,15.583.031,23.374,0,.907-.228,1.227-1.146,1.156-.984-.075-1.977-.016-2.967-.017a7.027,7.027,0,0,1-7.187-6,18.8,18.8,0,0,1-.271-3.121c-.03-4.225.05-8.452-.046-12.675a15.332,15.332,0,0,0-.727-4.479c-1.336-3.977-4.9-5.4-8.493-4.832-4.815.762-7.517,4.278-7.534,9.613-.022,6.713-.005,13.425-.006,20.138,0,1.35,0,1.352-1.389,1.352-3.058,0-6.116-.021-9.173.016-.776.01-1.018-.206-1.017-1.009q.034-27.285,0-54.57c0-.771.182-1.045.993-1.034,3.117.043,6.236.016,9.353.021C446.352,203.515,446.641,203.559,447.018,203.589Z" transform="translate(-52.886 -7.996)" fill="#fff"/><path d="M675.824,274.874H673.9c-2.878,0-5.757-.034-8.634.02-.888.017-1.088-.27-1.084-1.119q.051-10.159,0-20.318a16.339,16.339,0,0,0-.428-3.819c-1.475-5.928-7.053-6.933-11.089-5.3a8.1,8.1,0,0,0-5.216,7.543c-.232,4.333-.111,8.686-.13,13.03-.013,3-.022,5.994.01,8.99.008.739-.231.989-.976.982-3.238-.031-6.476-.025-9.713,0-.63,0-.9-.143-.9-.849q.029-19.554.016-39.109c0-.2.032-.408.054-.675h11.228v5.305a1.808,1.808,0,0,0,.312-.232c3.165-4.591,7.723-6.353,13.092-6.261a15.032,15.032,0,0,1,12.466,6.378,13.824,13.824,0,0,1,2.7,7.962c.16,8.356.15,16.715.205,25.073C675.828,273.22,675.824,273.964,675.824,274.874Z" transform="translate(-152.893 -22.778)" fill="#fff"/><path d="M557.408,199.115c-1.812-.521-3.473-1.117-5.185-1.465a6.036,6.036,0,0,0-7.355,5.212c-.307,2.632-.164,5.316-.225,7.977-.016.68.481.563.88.564q5.26.008,10.519,0c1.281,0,1.282,0,1.283,1.25,0,2.426-.03,4.853.017,7.279.016.8-.247,1.009-1.028,1-3.506-.04-7.012-.018-10.518-.017-1.153,0-1.155,0-1.155,1.192,0,7.25.036,14.5-.034,21.748a11.978,11.978,0,0,1-.751,3.925,6.738,6.738,0,0,1-6.36,4.309c-1.2.006-2.4-.017-3.6.006-.567.011-.844-.19-.8-.78.02-.268,0-.539,0-.808q0-22.333,0-44.666a22.006,22.006,0,0,1,2.433-11.085,13.856,13.856,0,0,1,10.829-7.085c4.81-.668,9.18.612,13.356,2.852.345.185.678.3.469.86C559.224,193.99,558.306,196.609,557.408,199.115Z" transform="translate(-101.573 0)" fill="#fff"/><path d="M605.814,235.359v1.008q0,19.232.019,38.464c0,.886-.2,1.19-1.131,1.173-3.146-.058-6.294-.045-9.44-.007-.79.01-1.025-.242-1.024-1.027q.031-19.368,0-38.734c0-.751.233-.967.974-.959,3.236.036,6.473.014,9.709.018C605.183,235.3,605.445,235.332,605.814,235.359Z" transform="translate(-132.141 -23.887)" fill="#fff"/><path d="M592.243,205.907a6.686,6.686,0,0,1,6.935-6.872,6.885,6.885,0,1,1-6.935,6.872Z" transform="translate(-131.143 -5.767)" fill="#fff"/></g></svg>